<svg width="112" height="112" viewBox="0 0 112 112" fill="none" xmlns="http://www.w3.org/2000/svg">
<path d="M44.6523 31.1199C45.6644 31.0509 47.2173 30.8796 48.1475 31.1375C50.1525 31.6027 50.8277 32.1918 52.5322 33.2927H52.5332C55.9424 32.4329 57.9619 32.1502 60.6279 34.948H60.627C61.8982 36.1115 62.2685 37.9479 62.4219 39.5857C61.9934 40.564 61.6741 41.6079 60.7588 42.1589C60.1785 42.1748 60.0276 42.1792 59.46 42.0877C59.4679 40.529 61.2743 40.0707 60.2734 36.5662C60.2141 36.4185 60.0512 36.1197 59.8809 35.8171L59.4414 35.0457L59.0781 34.6453C57.2841 32.7799 55.8296 32.9073 53.6357 34.5496H53.6348C53.6857 34.6488 53.737 34.7386 53.7832 34.825C53.8295 34.9115 53.8713 34.9943 53.9053 35.0779C53.973 35.2448 54.0083 35.4161 53.9814 35.6316C53.8484 35.6961 53.7389 35.7273 53.6426 35.738C53.6103 35.7417 53.5795 35.7434 53.5498 35.7429C53.43 35.7409 53.3275 35.7093 53.2168 35.6794C53.0539 35.6355 52.873 35.5948 52.5918 35.658C52.4971 35.6793 52.3911 35.713 52.2705 35.7615L52.1816 36.3328L52.0205 36.4177C51.9933 36.1558 51.9825 35.989 51.9678 35.8699C51.926 35.5324 51.8428 35.5786 51.1934 34.9392C49.8605 33.554 49.2846 33.0104 47.4033 32.4275L45.665 32.1697C43.8466 32.299 42.4692 32.5779 41.1094 33.9148C40.5053 37.1225 42.6782 36.0454 43.54 37.4148C43.4009 37.7989 43.3486 37.9315 42.9521 38.1238C41.7788 38.6907 36.0526 35.7372 33.5605 40.4812C32.9551 41.6321 32.9549 42.908 33.3691 44.1209C33.7233 45.1581 34.3367 45.9757 35.0371 46.7996L35.2686 46.865C36.5809 47.2286 38.2062 47.064 38.7139 47.7849C38.6174 48.5455 37.9233 49.1021 37.373 49.6951C37.0679 51.607 37.1651 52.4109 37.3564 54.3513C37.7059 55.9184 39.1095 57.84 40.8945 57.3865C42.7777 56.9073 42.7165 55.4223 44.4951 54.2537C45.1592 54.2078 45.8615 54.1458 46.5225 54.1189C46.7391 55.9202 47.1806 57.2775 48.667 58.4841C49.7107 59.3284 51.7409 59.4689 52.5947 58.3084C53.1086 57.6094 53.0312 56.83 54.0352 56.6101L54.0752 56.4236C54.5587 54.538 57.1364 54.015 57.9453 56.2244C58.3727 57.3878 61.9543 55.5878 62.6152 54.9158C63.1861 54.3369 64.1667 53.1649 64.8418 52.6921L65.2275 52.7859C66.5051 51.614 66.2899 47.3761 65.6006 45.8435C65.2986 45.1714 64.5918 43.9787 64.4922 43.3572L64.9092 43.1267C64.6182 42.7409 64.5841 42.7784 64.4561 42.3435C65.3431 42.3345 66.5082 43.9175 67.6592 44.3982C69.0032 47.0501 69.5424 47.4517 68.0703 50.0515L66.8291 52.5974L66.3057 53.6238C63.9528 57.8003 61.1923 59.4037 56.4043 57.699C55.3638 57.8967 54.4131 59.4658 53.2461 60.1189C50.4017 61.4187 48.8205 59.6904 47.0322 59.698L46.8975 60.1921C46.9284 60.2876 46.9506 60.3851 46.9648 60.4841C47.0076 60.7811 46.9812 61.0921 46.9209 61.4041C46.8405 61.8205 46.6994 62.2388 46.584 62.6287L46.5898 63.4099C46.6112 64.0644 46.7161 64.4195 47.2461 65.1843C48.1979 64.2498 48.6585 64.0976 50.0117 64.115C50.26 64.1197 50.5072 64.126 50.7539 64.1355C50.5199 65.9146 50.5278 66.7497 51.6299 68.3201C52.9502 70.2003 55.7114 71.2996 56.1211 68.0945C56.9354 67.5916 57.9536 66.8428 58.9023 66.9519C60.0582 67.594 59.7987 68.6336 60.915 69.3152C60.9735 69.3673 61.0324 69.4212 61.0908 69.4734H61.0898C62.5193 69.475 63.7629 70.0024 65.292 69.0994C66.6958 68.2691 67.0784 66.8868 67.5195 65.4431C70.3308 62.9859 70.2381 68.5368 75.0684 66.7234H75.0693C76.641 65.58 76.4481 64.0675 78.0547 61.9294C78.9826 61.7714 79.3211 61.7434 80.2334 62.0359C80.4246 62.0912 80.4579 62.1509 80.6396 62.0544C83.2329 60.6881 84.6673 56.9276 83.2109 54.2771C82.1611 52.3685 80.3017 50.6195 78.6572 49.2136C78.4738 49.0571 77.151 48.6128 76.8711 48.5164C76.1359 48.2302 74.775 47.8663 74.2119 47.5564L74.2559 47.3962C75.0734 47.3267 76.6167 47.9864 77.4785 48.2869C78.5538 48.668 79.6407 49.0207 80.7334 49.3464C81.8102 47.8884 82.9327 46.9138 84.0459 45.6091C86.2248 43.0535 87.4899 38.7294 88.1777 35.5173C88.9889 35.5226 89.8002 35.522 90.6113 35.5154C90.8117 36.4967 90.9708 37.4095 91.1221 38.3621L91.2725 39.3318C91.2976 39.5523 91.3184 39.7591 91.334 39.9548C91.3496 40.1504 91.3597 40.3355 91.3652 40.5134C91.3819 41.0473 91.3529 41.5173 91.2686 42.0173C91.1842 42.5175 91.0448 43.0476 90.8438 43.7019C90.6389 44.0936 90.4519 44.4187 90.3057 44.8181L90.2461 44.9939C90.3198 45.1246 90.3737 45.2096 90.4092 45.2752C90.4268 45.3078 90.4402 45.3357 90.4492 45.3621C90.4946 45.4943 90.4351 45.589 90.3066 46.0584C89.9967 47.1859 89.4729 48.3677 88.959 49.4177L88.8506 49.7615C88.2846 51.481 87.3773 53.155 85.8281 54.1707L85.9072 54.5281C86.0638 55.5338 85.8403 56.6269 85.4229 57.5457C84.8821 59.1334 83.2697 61.8477 82.1328 63.1287C81.6127 63.7153 81.0115 63.9269 80.7031 64.3884L80.7168 64.5847C80.8576 66.2481 81.4244 67.3544 81.7969 68.8582C81.8217 68.9585 81.8452 69.0607 81.8682 69.1648C81.879 69.2139 81.8886 69.2705 81.8975 69.3337C82.0471 70.4073 81.9007 73.4399 81.2939 75.782C81.2226 76.0573 81.1448 76.323 81.0605 76.575C80.7441 77.5207 80.3347 78.2716 79.8174 78.5994C79.7484 78.6431 79.6773 78.6787 79.6045 78.7068C79.3497 78.8052 79.0714 78.8052 78.7676 78.6834C78.3185 78.3576 77.9813 78.1668 77.499 77.8884C77.4126 77.8295 77.3322 77.7704 77.2568 77.7117C77.1066 77.5946 76.9774 77.4774 76.8643 77.3591C76.7509 77.2406 76.6538 77.121 76.5684 76.9988C76.4829 76.8766 76.4086 76.7522 76.3418 76.6238C76.3083 76.5595 76.2776 76.4938 76.2471 76.4275C76.125 76.1626 76.0207 75.8806 75.8984 75.5711C75.7763 75.2618 75.6352 74.9253 75.4385 74.5515L75.3691 74.4216L75.1777 74.3836C74.8647 74.9643 74.4399 77.2718 74.0225 78.2664L73.8008 78.6687C73.7681 78.7279 73.737 78.7838 73.7051 78.8367C73.6414 78.9421 73.5762 79.0363 73.498 79.1248C73.3805 79.2578 73.2332 79.3782 73.0166 79.5046C72.3398 79.6311 71.9772 79.4456 71.3447 79.1531L70.4521 78.5476C69.4433 77.0564 69.3165 76.1611 68.9102 74.4343L68.5117 72.2869C68.2208 70.9664 67.8842 70.2737 68.4502 69.1003C69.3167 68.5058 70.0311 69.2091 70.6904 69.8132L71.0205 72.5408L71.2139 73.7498C71.2976 74.2745 71.3118 74.4884 71.7607 74.8425C72.1481 74.5089 72.5261 74.2441 72.9355 73.9421C73.0241 73.1151 73.0749 72.4145 73.2773 71.6033C73.3153 70.9106 73.2886 70.4062 73.5605 69.7673L73.8447 69.6775L74.2402 69.9666C74.4252 69.8385 74.3603 69.9063 74.4961 69.7136C74.7175 69.4005 74.463 68.5734 74.3887 68.1843C71.8208 68.4041 70.9005 68.2252 68.5967 66.9949C67.542 68.8483 66.8429 69.299 65.042 70.447C64.6546 70.6937 64.0696 70.9928 63.7549 71.2869C64.1344 73.4946 63.8562 74.8881 63.5811 77.0847L63.4062 77.8826C63.3776 78.0121 63.3479 78.1396 63.3154 78.2644C63.2503 78.5146 63.1738 78.7542 63.0713 78.9783C63.0202 79.0901 62.9624 79.1981 62.8965 79.3015C62.8304 79.4052 62.7556 79.5043 62.6709 79.5984C62.5863 79.6924 62.4917 79.7818 62.3848 79.865C61.977 79.944 62.0013 79.9266 61.6064 79.7781C59.701 78.6837 59.1467 75.9191 58.3877 73.8142C57.9386 75.3214 56.6046 80.4611 55.3271 80.9998C54.8261 80.9381 54.2694 80.8706 53.8662 80.5388C52.0699 79.0554 51.7883 73.0119 51.5859 70.7283C50.0996 69.5533 49.5729 68.5303 48.2383 67.2556C47.9869 67.0153 46.6303 66.203 46.2568 65.9783C44.0035 64.1406 44.3164 61.0913 45.6162 58.7839L45.5596 58.572C44.9278 56.5099 42.9467 58.2977 41.8086 58.9089C38.2115 58.6464 36.8043 58.0266 35.3037 54.5984C35.4026 54.5913 35.4948 54.5815 35.582 54.5701L35.8311 54.531C35.6719 54.5595 35.5009 54.5842 35.3027 54.5984C34.9703 54.4941 33.6473 54.5365 33.2568 54.5681C24.0097 55.3161 21.4211 48.5801 20.6289 40.4285C24.4206 38.112 23.7902 40.214 26.4941 42.4382C27.5142 43.2765 30.0268 45.5488 31.3486 45.4793C32.0868 44.2471 30.1468 40.341 31.9082 37.9939C33.314 36.1197 37.2577 36.015 39.6328 35.5623L38.8652 33.3005C40.4876 31.929 42.5706 31.3501 44.6484 31.1199C44.6497 31.1201 44.6511 31.1197 44.6523 31.1199ZM75.6299 67.4392H75.6289H75.6299ZM77.8906 65.8308C77.7783 65.9853 77.6698 66.1323 77.5547 66.2761C77.6698 66.1323 77.7783 65.9853 77.8906 65.8308ZM45.9414 59.1834C46.2589 59.5403 46.3914 59.5706 46.5098 59.9627C46.4112 59.636 46.303 59.5605 46.0859 59.3377L45.9414 59.1834ZM86.209 52.8377C86.0804 53.0309 85.9918 53.2029 85.9316 53.407C85.9918 53.2029 86.0804 53.0308 86.209 52.8377ZM23.9785 42.864C23.5437 44.2351 24.0774 45.1415 24.3857 46.4177C25.9306 52.8286 29.2469 53.4451 35.042 53.4246C34.8033 51.8639 34.7296 50.6115 34.7217 49.0271C32.6439 46.4272 31.1016 47.4757 28.1494 45.9148C26.7738 45.1858 24.7804 43.2517 23.9785 42.864ZM86.6055 52.3035L86.5225 52.406L86.6064 52.3035V52.3015L86.6055 52.3035Z" fill="#352B25"/>
</svg>
